<svg width="256" height="256" viewBox="0 0 256 256" fill="none" xmlns="http://www.w3.org/2000/svg">
    <path id="logo-container" d="M0 36C0 16.1177 16.1177 0 36 0H220C239.882 0 256 16.1177 256 36V220C256 239.882 239.882 256 220 256H36C16.1177 256 0 239.882 0 220V36Z"/>
    <path id="logo-shape" d="M223.725 179.703L154.318 67.043C148.939 58.3129 139.438 53 129.21 53C118.982 53 109.547 58.2762 104.157 66.955L79.0419 107.401L51.6173 94.0841C44.0203 90.3882 34.8849 93.7542 31.4755 101.502L31.2745 101.956C28.0223 109.341 31.2014 117.983 38.4513 121.481L62.9599 133.298L34.556 179.05C30.2806 185.94 32.1186 194.981 38.7437 199.634L38.9154 199.755C46.1068 204.808 56.0608 202.722 60.6322 195.201L90.2676 146.476L202.93 200.804C207.749 203.712 213.998 203.836 219.055 200.551C226.002 196.034 228.078 186.772 223.725 179.706V179.703ZM116.073 104.05C122.004 94.2968 136.12 94.2968 142.055 104.05L171.357 152.225L106.057 120.52L116.073 104.054V104.05Z"/>
    <style>
        #logo-container { fill: #17191B; }
        #logo-shape { fill: #FFFFFF; }
        @media (prefers-color-scheme: dark) {
            #logo-container { fill: #FFFFFF; }
            #logo-shape { fill: #17191B; }
        }
    </style>
</svg>